<svg width="245" height="199" viewBox="0 0 245 199" fill="none" xmlns="http://www.w3.org/2000/svg">
<g clip-path="url(#clip0_14_155)">
<path d="M96.1149 110.211C97.0059 94.3233 104.787 80.3272 116.528 70.405C128.041 60.6597 143.537 54.7031 160.446 54.7031C177.337 54.7031 192.834 60.6597 204.356 70.405C216.087 80.3263 223.87 94.3233 224.769 110.194C225.659 126.517 219.096 141.681 207.583 152.922C195.843 164.356 179.144 171.53 160.446 171.53C141.748 171.53 125.016 164.356 113.284 152.922C101.762 141.68 95.2153 126.516 96.1149 110.211Z" fill="white"/>
<path d="M127.446 111.627C127.902 103.476 131.896 96.2939 137.92 91.2031C143.827 86.2032 151.778 83.1465 160.455 83.1465C169.121 83.1465 177.073 86.2032 182.985 91.2031C189.004 96.2939 192.997 103.476 193.458 111.62C193.916 119.995 190.549 127.776 184.64 133.543C178.617 139.41 170.049 143.091 160.455 143.091C150.86 143.091 142.275 139.41 136.255 133.543C130.344 127.776 126.985 119.995 127.446 111.627Z" fill="#265787"/>
<path d="M75.0414 128.374C75.0988 131.57 76.118 137.783 77.6483 142.633C80.863 152.902 86.3161 162.402 93.9043 170.774C101.692 179.379 111.28 186.292 122.357 191.199C133.998 196.353 146.611 198.979 159.713 198.958C172.794 198.94 185.408 196.262 197.049 191.069C208.125 186.114 217.705 179.172 225.48 170.562C233.063 162.155 238.507 152.639 241.732 142.37C243.352 137.182 244.376 131.916 244.786 126.632C245.188 121.419 245.019 116.179 244.281 111.003C242.838 100.851 239.324 91.3257 233.914 82.6424C228.966 74.6633 222.588 67.6782 215.004 61.7981L215.021 61.7857L138.488 3.03763C138.418 2.98597 138.362 2.93048 138.288 2.88264C133.268 -0.971067 124.823 -0.957673 119.301 2.90369C113.718 6.80907 113.078 13.268 118.047 17.3408L118.026 17.3628L149.947 43.3131L52.6538 43.4165H52.5236C44.4818 43.426 36.7519 48.7005 35.2207 55.366C33.6483 62.1569 39.111 67.7901 47.4725 67.8207L47.4591 67.8504L96.7744 67.7547L8.77432 135.282C8.66235 135.364 8.5408 135.45 8.43744 135.532C0.136236 141.887 -2.54725 152.454 2.68096 159.141C7.98764 165.941 19.2709 165.954 27.6583 159.18L75.6855 119.886C75.6855 119.886 74.9849 125.19 75.0414 128.374ZM198.454 146.137C188.559 156.216 174.704 161.931 159.714 161.961C144.701 161.987 130.847 156.323 120.952 146.262C116.116 141.359 112.564 135.717 110.373 129.708C108.219 123.794 107.39 117.48 107.945 111.21C108.467 105.028 110.309 99.1317 113.247 93.796C116.133 88.5521 120.109 83.8125 125.018 79.8038C134.636 71.9682 146.883 67.7251 159.691 67.7078C172.513 67.6906 184.751 71.8945 194.379 79.7052C199.279 83.6958 203.251 88.4182 206.137 93.6544C209.114 99.0181 210.928 104.948 211.461 111.059C212.008 117.325 211.176 123.634 209.024 129.543C206.828 135.571 203.289 141.213 198.454 146.137Z" fill="#EA7600"/>
</g>
<defs>
<clipPath id="clip0_14_155">
<rect width="245" height="199" fill="white"/>
</clipPath>
</defs>
</svg>
