<svg width="160" height="159" viewBox="0 0 160 159" fill="none" xmlns="http://www.w3.org/2000/svg">
<path d="M0 138.498C0 149.822 9.23687 159 20.6306 159H139.369C150.764 159 160 149.821 160 138.498V20.5023C160 9.1779 150.763 0 139.369 0H20.6312C9.23562 0 0 9.17914 0 20.5017V138.498V138.498Z" fill="#563D7C"/>
<path d="M66.3488 70.3314V47.8149H86.2931C88.1931 47.8149 90.0244 47.972 91.7881 48.2869C93.5519 48.6012 95.1125 49.1627 96.4694 49.972C97.8256 50.7812 98.9113 51.9048 99.7256 53.3426C100.539 54.7811 100.947 56.6239 100.947 58.8704C100.947 62.9156 99.7256 65.8372 97.2831 67.6346C94.8413 69.4327 91.7206 70.3314 87.9212 70.3314H66.3488ZM45.0469 31.3652V127.635H91.9919C96.3337 127.635 100.563 127.096 104.678 126.017C108.794 124.938 112.457 123.275 115.668 121.028C118.879 118.781 121.434 115.882 123.334 112.332C125.234 108.781 126.183 104.579 126.183 99.7247C126.183 93.7019 124.713 88.5562 121.774 84.2868C118.834 80.0168 114.379 77.028 108.409 75.32C112.751 73.253 116.03 70.601 118.246 67.3651C120.462 64.1292 121.57 60.0846 121.57 55.2301C121.57 50.7359 120.824 46.9609 119.331 43.9045C117.839 40.8487 115.736 38.3991 113.022 36.5563C110.309 34.7136 107.053 33.3875 103.253 32.5789C99.4544 31.7696 95.2481 31.3652 90.635 31.3652H45.0469ZM66.3488 111.185V84.7582H89.5494C94.1625 84.7582 97.8712 85.814 100.676 87.927C103.479 90.0393 104.882 93.5672 104.882 98.5111C104.882 101.028 104.452 103.095 103.593 104.713C102.733 106.331 101.58 107.613 100.133 108.556C98.6856 109.5 97.0119 110.174 95.1125 110.579C93.2125 110.983 91.2231 111.185 89.1425 111.185H66.3488Z" fill="white"/>
</svg>
