<svg width="350" height="350" viewBox="0 0 350 350" fill="none" xmlns="http://www.w3.org/2000/svg">
<path d="M213.106 86.811V146.716L234.063 159.895C234.819 160.062 235.603 160.062 236.36 159.895L326.463 99.1485C326.397 96.2003 325.318 93.3646 323.408 91.1179C321.498 88.8712 318.873 87.3504 315.974 86.811H213.106Z" fill="#0072C6"/>
<path d="M213.106 169.061L232.214 182.186C233.109 182.731 234.136 183.019 235.184 183.019C236.231 183.019 237.258 182.731 238.153 182.186C234.872 184.166 326.451 123.364 326.451 123.364V233.461C326.69 235.692 326.439 237.948 325.714 240.072C324.99 242.195 323.811 244.135 322.258 245.755C320.706 247.375 318.818 248.636 316.728 249.451C314.637 250.265 312.394 250.612 310.155 250.469H213.095V169.061H213.106Z" fill="#0072C6"/>
<path d="M114.188 141.444C111.013 141.429 107.893 142.273 105.159 143.886C102.424 145.5 100.178 147.823 98.6563 150.61C94.5013 157.996 92.5077 166.403 92.9032 174.869C92.4714 183.317 94.4678 191.713 98.6563 199.063C100.171 201.735 102.363 203.961 105.011 205.517C107.658 207.074 110.669 207.907 113.741 207.931C116.812 207.955 119.836 207.171 122.508 205.656C125.18 204.142 127.407 201.951 128.964 199.303C133.107 191.987 135.062 183.636 134.597 175.241C135.071 166.583 133.181 157.958 129.128 150.292C127.68 147.597 125.523 145.348 122.89 143.788C120.257 142.229 117.248 141.418 114.188 141.444Z" fill="#0072C6"/>
<path d="M23.5483 56.3828V290.741L201.83 328.125V21.875L23.5483 56.3828ZM142.855 213.183C139.52 217.884 135.085 221.699 129.938 224.293C124.79 226.888 119.086 228.184 113.323 228.069C107.705 228.169 102.146 226.91 97.1189 224.4C92.0916 221.89 87.7449 218.203 84.4483 213.653C76.6301 202.738 72.719 189.506 73.3468 176.094C72.6817 162.024 76.6634 148.127 84.678 136.544C88.0552 131.752 92.5593 127.865 97.7932 125.226C103.027 122.586 108.83 121.274 114.691 121.406C120.268 121.294 125.788 122.553 130.765 125.072C135.742 127.592 140.025 131.294 143.237 135.855C150.978 147.007 154.822 160.401 154.175 173.961C154.857 187.929 150.874 201.727 142.855 213.183Z" fill="#0072C6"/>
</svg>
