<svg width="333" height="333" viewBox="0 0 333 333" fill="none" xmlns="http://www.w3.org/2000/svg">
<path d="M166.5 0C74.5439 0 0 74.5439 0 166.5C0 258.456 74.5439 333 166.5 333C258.456 333 333 258.456 333 166.5C333 74.5439 258.456 0 166.5 0Z" fill="#40B3E0"/>
<path d="M247.517 95.7765L217.777 245.716C217.777 245.716 213.618 256.115 202.181 251.124L133.554 198.51L108.6 186.449L66.5923 172.307C66.5923 172.307 60.1456 170.02 59.5212 165.029C58.8968 160.038 66.8004 157.335 66.8004 157.335L233.789 91.8273C233.789 91.8273 247.515 85.7969 247.515 95.7791" fill="white"/>
<path d="M128.28 244.03C128.28 244.03 126.277 243.843 123.78 235.939C121.286 228.037 108.6 186.446 108.6 186.446L209.46 122.396C209.46 122.396 215.283 118.86 215.075 122.396C215.075 122.396 216.114 123.02 212.994 125.931C209.876 128.844 133.763 197.261 133.763 197.261" fill="#D2E5F1"/>
<path d="M159.867 218.681L132.724 243.43C132.724 243.43 130.601 245.04 128.28 244.031L133.478 198.061" fill="#B5CFE4"/>
</svg>
