<svg width="356" height="356" viewBox="0 0 356 356" fill="none" xmlns="http://www.w3.org/2000/svg">
<ellipse cx="178" cy="199.78" rx="137.443" ry="136.692" fill="white"/>
<path d="M177.861 26.5264C91.8856 26.4916 22.25 96.0924 22.25 181.998C22.25 249.93 65.8113 307.676 126.477 328.883C134.647 330.934 133.396 325.128 133.396 321.165V294.222C86.2188 299.749 84.3066 268.53 81.143 263.315C74.7461 252.399 59.623 249.617 64.1426 244.403C74.8852 238.875 85.8363 245.793 98.5258 264.532C107.704 278.125 125.608 275.831 134.682 273.571C136.664 265.401 140.905 258.1 146.746 252.433C97.8652 243.672 77.4926 213.844 77.4926 178.383C77.4926 161.174 83.1594 145.355 94.2844 132.596C87.1922 111.563 94.9449 93.5545 95.9879 90.8775C116.187 89.0697 137.185 105.34 138.819 106.626C150.292 103.532 163.398 101.898 178.07 101.898C192.81 101.898 205.952 103.602 217.529 106.731C221.457 103.741 240.926 89.7651 259.699 91.4686C260.707 94.1455 268.286 111.737 261.611 132.492C272.875 145.286 278.612 161.243 278.612 178.487C278.612 214.017 258.1 243.881 209.08 252.503C213.279 256.632 216.613 261.556 218.887 266.988C221.161 272.42 222.331 278.251 222.326 284.14V323.251C222.604 326.38 222.326 329.474 227.541 329.474C289.111 308.719 333.437 250.556 333.437 182.033C333.437 96.0924 263.767 26.5264 177.861 26.5264Z" fill="#333333"/>
</svg>
