<svg width="256" height="256" viewBox="0 0 256 256" fill="none" xmlns="http://www.w3.org/2000/svg">
<g clip-path="url(#clip0_30_440)">
<path d="M0 189.04L21.624 226.416C23.7741 230.696 27.0705 234.294 31.1457 236.809C35.2209 239.325 39.9148 240.66 44.704 240.664H188.248L158.456 189.04H0ZM256 189.288C255.989 184.323 254.557 179.465 251.872 175.288L167.744 29.0801C165.551 24.9267 162.265 21.4508 158.241 19.0274C154.218 16.6039 149.609 15.3249 144.912 15.3281H100.456L230.376 240.408L250.88 204.952C254.88 198.16 256.008 195.16 256.008 189.288H256ZM137.288 152.376L79.248 51.8321L21.168 152.376H137.288Z" fill="#00A3FF"/>
</g>
<defs>
<clipPath id="clip0_30_440">
<rect width="256" height="256" fill="white"/>
</clipPath>
</defs>
</svg>
