<svg width="305" height="305" viewBox="0 0 305 305" fill="none" xmlns="http://www.w3.org/2000/svg">
<path fill-rule="evenodd" clip-rule="evenodd" d="M94.8676 13.5472C109.774 12.861 114.527 12.7085 152.5 12.7085C190.472 12.7085 195.225 12.8737 210.119 13.5472C225.014 14.2208 235.18 16.5972 244.076 20.0412C253.391 23.5614 261.842 29.0641 268.832 36.1808C275.949 43.1577 281.439 51.596 284.946 60.9239C288.403 69.8197 290.767 79.9864 291.453 94.8552C292.139 109.787 292.292 114.54 292.292 152.5C292.292 190.473 292.126 195.226 291.453 210.132C290.779 225.001 288.403 235.168 284.946 244.064C281.439 253.393 275.939 261.845 268.832 268.832C261.842 275.949 253.391 281.439 244.076 284.946C235.18 288.403 225.014 290.767 210.145 291.453C195.225 292.139 190.472 292.292 152.5 292.292C114.527 292.292 109.774 292.127 94.8676 291.453C79.9989 290.78 69.8322 288.403 60.9364 284.946C51.6074 281.438 43.1551 275.939 36.1678 268.832C29.056 261.851 23.5525 253.403 20.041 244.076C16.597 235.181 14.2333 225.014 13.547 210.145C12.8608 195.213 12.7083 190.46 12.7083 152.5C12.7083 114.528 12.8735 109.775 13.547 94.8806C14.2205 79.9864 16.597 69.8197 20.041 60.9239C23.5576 51.597 29.0654 43.1489 36.1805 36.1681C43.1579 29.0578 51.6017 23.5543 60.9237 20.0412C69.8195 16.5972 79.9862 14.2335 94.8549 13.5472H94.8676ZM208.988 38.7097C194.247 38.0362 189.824 37.8964 152.5 37.8964C115.176 37.8964 110.753 38.0362 96.0114 38.7097C82.3753 39.3325 74.9791 41.6072 70.0482 43.5262C63.5289 46.0679 58.8649 49.0797 53.9722 53.9725C49.3342 58.4846 45.7649 63.9775 43.526 70.0485C41.607 74.9793 39.3322 82.3756 38.7095 96.0116C38.036 110.753 37.8962 115.176 37.8962 152.5C37.8962 189.825 38.036 194.247 38.7095 208.989C39.3322 222.625 41.607 230.021 43.526 234.952C45.7626 241.014 49.3337 246.516 53.9722 251.028C58.4837 255.666 63.9864 259.237 70.0482 261.474C74.9791 263.393 82.3753 265.668 96.0114 266.291C110.753 266.964 115.163 267.104 152.5 267.104C189.837 267.104 194.247 266.964 208.988 266.291C222.624 265.668 230.021 263.393 234.952 261.474C241.471 258.932 246.135 255.921 251.028 251.028C255.666 246.516 259.237 241.014 261.474 234.952C263.393 230.021 265.668 222.625 266.29 208.989C266.964 194.247 267.104 189.825 267.104 152.5C267.104 115.176 266.964 110.753 266.29 96.0116C265.668 82.3756 263.393 74.9793 261.474 70.0485C258.932 63.5291 255.92 58.8652 251.028 53.9725C246.515 49.3348 241.022 45.7655 234.952 43.5262C230.021 41.6072 222.624 39.3325 208.988 38.7097ZM134.645 195.594C144.616 199.745 155.72 200.305 166.059 197.179C176.398 194.053 185.331 187.434 191.332 178.454C197.333 169.473 200.03 158.687 198.962 147.939C197.895 137.191 193.129 127.147 185.478 119.522C180.601 114.648 174.704 110.916 168.212 108.595C161.719 106.273 154.793 105.42 147.931 106.097C141.07 106.774 134.443 108.964 128.529 112.509C122.616 116.054 117.561 120.866 113.731 126.599C109.9 132.331 107.388 138.842 106.375 145.663C105.363 152.483 105.875 159.443 107.875 166.041C109.875 172.64 113.314 178.712 117.942 183.823C122.571 188.933 128.276 192.953 134.645 195.594ZM101.692 101.692C108.364 95.02 116.285 89.7274 125.003 86.1164C133.72 82.5055 143.064 80.6469 152.5 80.6469C161.936 80.6469 171.279 82.5054 179.997 86.1164C188.715 89.7274 196.636 95.02 203.308 101.692C209.98 108.364 215.273 116.285 218.884 125.003C222.495 133.721 224.353 143.064 224.353 152.5C224.353 161.936 222.495 171.28 218.884 179.997C215.273 188.715 209.98 196.636 203.308 203.308C189.833 216.783 171.557 224.353 152.5 224.353C133.443 224.353 115.167 216.783 101.692 203.308C88.2169 189.833 80.6467 171.557 80.6467 152.5C80.6467 133.443 88.2169 115.167 101.692 101.692ZM240.289 91.3477C241.942 89.7879 243.266 87.9124 244.182 85.8319C245.097 83.7515 245.586 81.5085 245.619 79.2357C245.652 76.963 245.229 74.7067 244.375 72.6005C243.52 70.4942 242.252 68.5808 240.644 66.9736C239.037 65.3663 237.124 64.0979 235.018 63.2434C232.911 62.3889 230.655 61.9657 228.382 61.9988C226.109 62.0319 223.867 62.5208 221.786 63.4363C219.706 64.3518 217.83 65.6755 216.27 67.3289C213.237 70.5445 211.576 74.8157 211.641 79.2357C211.705 83.6558 213.49 87.8767 216.615 91.0025C219.741 94.1283 223.962 95.9128 228.382 95.9773C232.802 96.0417 237.073 94.381 240.289 91.3477Z" fill="#F8F8F8"/>
</svg>
