<svg width="113" height="159" viewBox="0 0 113 159" fill="none" xmlns="http://www.w3.org/2000/svg">
<g clip-path="url(#clip0_147_2)">
<path d="M56.4312 158.598L10.4472 145.86L0.199707 31.1685H112.8L102.542 145.842L56.4312 158.598V158.598Z" fill="#267DE4"/>
<path d="M93.76 138.54L102.526 40.5459H56.5V148.848L93.76 138.54V138.54Z" fill="#2985F1"/>
<path d="M23.6917 83.0835L24.9549 97.1499H56.5V83.0835H23.6917Z" fill="#EBEBEB"/>
<path d="M21.1529 54.6128L22.4342 68.6792H56.5V54.6128H21.1529V54.6128Z" fill="#EBEBEB"/>
<path d="M56.5 119.615L56.4382 119.632L40.7392 115.402L39.7355 104.183H25.5848L27.5596 126.27L56.4351 134.268L56.5 134.25V119.615Z" fill="#EBEBEB"/>
<path d="M26.6998 0H43.7724V7.12461H33.8395V14.2492H43.7733V21.3734H26.6998V0Z" fill="black"/>
<path d="M47.1873 0H64.2604V6.19527H54.3271V7.43424H64.2604V21.6835H47.1878V15.1777H57.121V13.9387H47.1869V0H47.1873Z" fill="black"/>
<path d="M67.6753 0H84.7483V6.19527H74.8151V7.43424H84.7483V21.6835H67.6753V15.1777H77.6086V13.9387H67.6757V0H67.6753Z" fill="black"/>
<path d="M89.2182 83.0835L91.7628 54.6128H56.4514V68.6792H76.3144L75.0318 83.0835H56.4514V97.1499H73.8096L72.173 115.393L56.451 119.628V134.262L85.3495 126.27L85.5614 123.893L88.8744 86.8607L89.2182 83.0835V83.0835Z" fill="white"/>
</g>
<defs>
<clipPath id="clip0_147_2">
<rect width="113" height="159" fill="white"/>
</clipPath>
</defs>
</svg>
