<svg width="161" height="161" viewBox="0 0 161 161" fill="none" xmlns="http://www.w3.org/2000/svg">
<g clip-path="url(#clip0_10_80)">
<path d="M107.333 107.333C122.153 107.333 134.167 95.3195 134.167 80.4998C134.167 65.6802 122.153 53.6665 107.333 53.6665C92.5137 53.6665 80.5 65.6802 80.5 80.4998C80.5 95.3195 92.5137 107.333 107.333 107.333Z" fill="#19BCFE"/>
<path fill-rule="evenodd" clip-rule="evenodd" d="M53.6666 161C60.7833 161 67.6085 158.173 72.6407 153.141C77.6729 148.109 80.5 141.283 80.5 134.167V107.333H53.6666C46.55 107.333 39.7248 110.161 34.6926 115.193C29.6604 120.225 26.8333 127.05 26.8333 134.167C26.8333 141.283 29.6604 148.109 34.6926 153.141C39.7248 158.173 46.55 161 53.6666 161Z" fill="#09CF83"/>
<path fill-rule="evenodd" clip-rule="evenodd" d="M53.6666 107.333H80.5V53.6665H53.6666C46.55 53.6665 39.7248 56.4936 34.6926 61.5258C29.6604 66.558 26.8333 73.3832 26.8333 80.4998C26.8333 87.6165 29.6604 94.4416 34.6926 99.4739C39.7248 104.506 46.55 107.333 53.6666 107.333Z" fill="#A259FF"/>
<path fill-rule="evenodd" clip-rule="evenodd" d="M53.6666 53.6667H80.5V0H53.6666C46.55 0 39.7248 2.82708 34.6926 7.8593C29.6604 12.8915 26.8333 19.7167 26.8333 26.8333C26.8333 33.95 29.6604 40.7751 34.6926 45.8074C39.7248 50.8396 46.55 53.6667 53.6666 53.6667Z" fill="#F24E1E"/>
<path fill-rule="evenodd" clip-rule="evenodd" d="M107.333 53.6667H80.5V0H107.333C114.45 0 121.275 2.82708 126.307 7.8593C131.34 12.8915 134.167 19.7167 134.167 26.8333C134.167 33.95 131.34 40.7751 126.307 45.8074C121.275 50.8396 114.45 53.6667 107.333 53.6667Z" fill="#FF7262"/>
</g>
<defs>
<clipPath id="clip0_10_80">
<rect width="161" height="161" fill="white"/>
</clipPath>
</defs>
</svg>
