<svg width="173" height="173" viewBox="0 0 173 173" fill="none" xmlns="http://www.w3.org/2000/svg">
<path d="M0 19.4929V151.883L101.707 173V0L0 19.4929ZM51.2404 116.477C18.9082 114.412 22.2382 56.7021 51.9952 56.2436C83.8733 58.3301 80.746 116.016 51.2404 116.477ZM51.7065 67.543C34.673 68.7141 35.4357 104.848 51.4438 105.138C68.4039 104.056 67.4079 67.8238 51.7065 67.543ZM119.037 90.5577C120.572 91.6755 122.422 90.5577 122.422 90.5577C120.578 91.6755 172.797 57.3289 172.797 57.3289V119.524C172.797 126.295 168.42 129.134 163.499 129.134H108.131L108.134 83.1441L119.037 90.5577ZM108.137 36.6794V70.5191L120.079 77.9652C120.394 78.0564 121.077 78.0629 121.392 77.9652L172.79 43.6511C172.79 39.5903 168.964 36.6794 166.805 36.6794H108.137Z" fill="#F8F8F8"/>
</svg>
