<svg width="173" height="173" viewBox="0 0 173 173" fill="none" xmlns="http://www.w3.org/2000/svg">
<path d="M86.5 2.70312C38.7157 2.70312 0 40.209 0 86.5C0 132.791 38.7157 170.297 86.5 170.297C134.284 170.297 173 132.791 173 86.5C173 40.209 134.284 2.70312 86.5 2.70312ZM128.983 60.1107L114.787 124.918C113.741 129.513 110.915 130.629 106.974 128.466L85.349 113.024L74.9202 122.756C73.7691 123.871 72.7925 124.817 70.5603 124.817L72.095 103.496L112.171 68.4229C113.915 66.9361 111.787 66.0914 109.485 67.5781L59.9571 97.7855L38.6111 91.3318C33.9722 89.9127 33.8675 86.8379 39.5877 84.6754L122.983 53.5219C126.855 52.1703 130.238 54.4342 128.983 60.1107Z" fill="#F8F8F8"/>
</svg>
