<svg width="173" height="173" viewBox="0 0 173 173" fill="none" xmlns="http://www.w3.org/2000/svg">
<path fill-rule="evenodd" clip-rule="evenodd" d="M7.20831 13.2489C7.20831 9.7351 8.60418 6.36519 11.0888 3.88054C13.5735 1.39588 16.9434 1.76627e-05 20.4572 1.76627e-05H152.528C154.27 -0.0028264 155.994 0.337821 157.604 1.00246C159.214 1.66709 160.676 2.64266 161.908 3.87332C163.14 5.10397 164.117 6.56554 164.784 8.17434C165.45 9.78314 165.793 11.5076 165.792 13.2489V145.32C165.794 147.062 165.452 148.787 164.787 150.396C164.121 152.006 163.145 153.468 161.914 154.7C160.682 155.932 159.22 156.909 157.611 157.576C156.002 158.242 154.277 158.584 152.536 158.583H20.4572C18.7168 158.583 16.9933 158.24 15.3854 157.574C13.7775 156.908 12.3167 155.931 11.0863 154.7C9.85591 153.469 8.88016 152.008 8.21476 150.4C7.54936 148.791 7.20737 147.068 7.20831 145.327V13.2489ZM69.9785 60.4635H91.4521V71.2472C94.5517 65.048 102.481 59.4688 114.396 59.4688C137.239 59.4688 142.653 71.8166 142.653 94.4724V136.439H119.536V99.6336C119.536 86.7307 116.436 79.4503 108.565 79.4503C97.6441 79.4503 93.1028 87.3001 93.1028 99.6336V136.439H69.9785V60.4635ZM30.3326 135.452H53.457V59.4688H30.3326V135.445V135.452ZM56.7656 34.6865C56.8092 36.6664 56.4569 38.6351 55.7293 40.4771C55.0018 42.319 53.9136 43.9971 52.5288 45.4127C51.1439 46.8284 49.4902 47.9533 47.6648 48.7212C45.8393 49.4891 43.8788 49.8847 41.8984 49.8847C39.918 49.8847 37.9575 49.4891 36.1321 48.7212C34.3066 47.9533 32.6529 46.8284 31.2681 45.4127C29.8832 43.9971 28.7951 42.319 28.0675 40.4771C27.3399 38.6351 26.9876 36.6664 27.0312 34.6865C27.1168 30.8002 28.7208 27.1018 31.4996 24.3835C34.2784 21.6652 38.0111 20.1431 41.8984 20.1431C45.7857 20.1431 49.5184 21.6652 52.2973 24.3835C55.0761 27.1018 56.68 30.8002 56.7656 34.6865Z" fill="white"/>
</svg>
