<svg width="173" height="173" viewBox="0 0 173 173" fill="none" xmlns="http://www.w3.org/2000/svg">
<path fill-rule="evenodd" clip-rule="evenodd" d="M86.5 0C38.7088 0 0 38.7088 0 86.5C0 124.776 24.7606 157.106 59.1444 168.567C63.4694 169.324 65.0912 166.729 65.0912 164.458C65.0912 162.404 64.9831 155.592 64.9831 148.348C43.25 152.348 37.6275 143.049 35.8975 138.184C34.9244 135.697 30.7075 128.02 27.0312 125.966C24.0037 124.344 19.6787 120.343 26.9231 120.235C33.735 120.127 38.6006 126.506 40.2225 129.101C48.0075 142.184 60.4419 138.508 65.4156 136.238C66.1725 130.615 68.4431 126.831 70.93 124.668C51.6838 122.506 31.5725 115.045 31.5725 81.9587C31.5725 72.5519 34.9244 64.7669 40.4388 58.7119C39.5738 56.5494 36.5462 47.6831 41.3038 35.7894C41.3038 35.7894 48.5481 33.5188 65.0912 44.6556C72.0112 42.7094 79.3637 41.7363 86.7162 41.7363C94.0687 41.7363 101.421 42.7094 108.341 44.6556C124.884 33.4106 132.129 35.7894 132.129 35.7894C136.886 47.6831 133.859 56.5494 132.994 58.7119C138.508 64.7669 141.86 72.4437 141.86 81.9587C141.86 115.153 121.641 122.506 102.394 124.668C105.53 127.371 108.233 132.561 108.233 140.671C108.233 152.24 108.125 161.539 108.125 164.458C108.125 166.729 109.747 169.432 114.072 168.567C131.243 162.769 146.165 151.733 156.736 137.011C167.306 122.29 172.995 104.624 173 86.5C173 38.7088 134.291 0 86.5 0Z" fill="#F8F8F8"/>
</svg>
