<svg width="210" height="208" viewBox="0 0 210 208" fill="none" xmlns="http://www.w3.org/2000/svg">
<g clip-path="url(#clip0_14_142)">
<rect width="140.538" height="128.037" rx="7" transform="matrix(0.708999 -0.70521 0.708999 0.70521 0 99.1094)" fill="white"/>
<path d="M206.036 94.7311L114.345 3.92613C113.09 2.68206 111.599 1.69516 109.958 1.02184C108.318 0.348515 106.559 0.00195313 104.783 0.00195312C103.008 0.00195313 101.249 0.348515 99.6085 1.02184C97.9679 1.69516 96.4773 2.68206 95.2219 3.92613L76.1906 22.7761L100.341 46.6961C103.189 45.733 106.253 45.5823 109.183 46.2613C112.114 46.9403 114.793 48.4216 116.914 50.5362C119.035 52.6509 120.514 55.3136 121.18 58.2205C121.847 61.1274 121.675 64.1613 120.684 66.9761L143.955 90.0381C147.398 88.8375 151.151 88.8338 154.596 90.0278C158.041 91.2218 160.973 93.5422 162.909 96.607C164.845 99.6718 165.67 103.298 165.247 106.889C164.825 110.48 163.18 113.822 160.584 116.363C157.957 118.982 154.492 120.616 150.783 120.986C147.074 121.356 143.351 120.438 140.249 118.391C137.146 116.344 134.858 113.293 133.775 109.76C132.691 106.227 132.88 102.432 134.308 99.0211L112.612 77.5191V134.108C115.91 135.725 118.549 138.412 120.089 141.723C121.628 145.033 121.976 148.766 121.074 152.299C120.172 155.833 118.075 158.953 115.132 161.14C112.188 163.328 108.577 164.45 104.9 164.32C101.222 164.19 97.7011 162.815 94.9229 160.425C92.1447 158.036 90.2774 154.775 89.6321 151.187C88.9868 147.599 89.6027 143.9 91.3769 140.707C93.1512 137.514 95.9767 135.02 99.3825 133.64V76.5311C97.4175 75.7337 95.6314 74.5588 94.127 73.0744C92.6226 71.5899 91.4297 69.8252 90.6171 67.882C89.8046 65.9388 89.3883 63.8555 89.3925 61.7522C89.3966 59.6489 89.821 57.5672 90.6412 55.6271L66.8456 32.0451L3.97687 94.3151C2.72083 95.5586 1.72445 97.035 1.04465 98.66C0.364848 100.285 0.0149536 102.027 0.0149536 103.786C0.0149536 105.545 0.364848 107.286 1.04465 108.911C1.72445 110.536 2.72083 112.013 3.97687 113.256L95.6681 204.074C96.9235 205.318 98.4141 206.305 100.055 206.978C101.695 207.652 103.454 207.998 105.23 207.998C107.006 207.998 108.764 207.652 110.405 206.978C112.045 206.305 113.536 205.318 114.791 204.074L206.049 113.685C208.583 111.172 210.006 107.766 210.006 104.215C210.006 100.663 208.583 97.2571 206.049 94.7441" fill="#F05133"/>
</g>
<defs>
<clipPath id="clip0_14_142">
<rect width="210" height="208" fill="white"/>
</clipPath>
</defs>
</svg>
