<svg width="209" height="209" viewBox="0 0 209 209" fill="none" xmlns="http://www.w3.org/2000/svg">
<ellipse cx="104.5" cy="117.287" rx="80.6899" ry="80.2489" fill="white"/>
<path d="M104.418 15.5728C53.944 15.5524 13.0625 56.4135 13.0625 106.847C13.0625 146.728 38.6364 180.63 74.2521 193.08C79.0485 194.284 78.3138 190.876 78.3138 188.549V172.731C50.6172 175.976 49.4946 157.648 47.6373 154.586C43.8818 148.178 35.0034 146.545 37.6567 143.483C43.9635 140.238 50.3927 144.3 57.8424 155.301C63.2307 163.281 73.7419 161.934 79.0689 160.607C80.2323 155.811 82.7224 151.525 86.1513 148.198C57.4546 143.055 45.4942 125.543 45.4942 104.724C45.4942 94.6213 48.8211 85.3347 55.3523 77.8441C51.1887 65.496 55.7401 54.9235 56.3524 53.352C68.2107 52.2906 80.5385 61.8426 81.4977 62.5978C88.2331 60.7813 95.9277 59.822 104.541 59.822C113.195 59.822 120.91 60.8221 127.706 62.659C130.013 60.9037 141.442 52.6988 152.464 53.6989C153.056 55.2705 157.505 65.5981 153.586 77.7829C160.199 85.2939 163.567 94.6621 163.567 104.786C163.567 125.645 151.525 143.177 122.747 148.239C125.212 150.663 127.169 153.554 128.504 156.743C129.839 159.932 130.525 163.355 130.523 166.812V189.773C130.686 191.61 130.523 193.427 133.584 193.427C169.731 181.242 195.754 147.096 195.754 106.867C195.754 56.4135 154.852 15.5728 104.418 15.5728Z" fill="#333333"/>
</svg>
