<svg width="113" height="159" viewBox="0 0 113 159" fill="none" xmlns="http://www.w3.org/2000/svg">
<path d="M112.8 31.1685L102.542 145.842L56.4311 158.598L10.447 145.86L0.199463 31.1685H112.8Z" fill="#E44D26"/>
<path d="M56.5 148.848L93.7602 138.54L102.526 40.5459H56.5V148.848Z" fill="#F16529"/>
<path d="M36.5583 68.6792H56.5V54.6128H21.1528L21.49 58.3865L24.9548 97.1499H56.5V83.0835H37.8467L36.5583 68.6792Z" fill="#EBEBEB"/>
<path d="M39.7354 104.183H25.5847L27.5594 126.27L56.4351 134.268L56.5 134.25V119.615L56.4382 119.632L40.7391 115.402L39.7354 104.183Z" fill="#EBEBEB"/>
<path d="M10.6757 0H17.8393V7.06251H24.3925V0H31.5566V21.387H24.393V14.2254H17.8398V21.387H10.6761V0H10.6757Z" fill="black"/>
<path d="M40.9766 7.09246H34.671V0H54.4511V7.09246H48.1415V21.387H40.9779V7.09246H40.9775H40.9766Z" fill="black"/>
<path d="M57.5902 0H65.0597L69.6545 7.51484L74.2449 0H81.7175V21.387H74.583V10.7865L69.6545 18.3907H69.5309L64.5994 10.7865V21.387H57.5902V0Z" fill="black"/>
<path d="M85.2825 0H92.4484V14.3179H102.522V21.387H85.2821V0H85.2825Z" fill="black"/>
<path d="M56.4515 97.1499H73.8097L72.1731 115.393L56.451 119.628V134.262L85.3496 126.27L85.5615 123.893L88.8745 86.8607L89.2184 83.0835H56.4515V97.1499Z" fill="white"/>
<path d="M56.4514 68.6449V68.6792H90.501L90.7835 65.5177L91.4261 58.3865L91.7629 54.6128H56.4514V68.6453V68.6449Z" fill="white"/>
</svg>
