<svg width="161" height="161" viewBox="0 0 161 161" fill="none" xmlns="http://www.w3.org/2000/svg">
<g clip-path="url(#clip0_10_74)">
<rect x="22.0117" y="26.4141" width="123.266" height="112.574" fill="#FF9900"/>
<path d="M70.6387 71.9806C69.9679 69.901 69.3642 67.8885 68.6933 65.809C68.0225 63.7294 67.4188 61.784 66.8821 59.8385C66.3454 57.9602 65.8758 56.216 65.4062 54.606H65.2721C64.6683 57.4906 63.9304 60.3752 62.9913 63.2598C61.985 66.4798 60.9788 69.8339 59.9054 73.1881C58.9663 76.6094 57.96 79.7623 56.9538 82.5798H73.9929C73.5904 81.1643 73.0538 79.4939 72.45 77.7431C71.8463 75.9385 71.2425 73.9931 70.6387 71.9806ZM132.49 2.0127H28.5104C12.7458 2.0127 0 14.7585 0 30.5231V130.477C0 146.242 12.7458 158.988 28.5104 158.988H132.49C148.254 158.988 161 146.242 161 130.477V30.5231C161 14.7585 148.254 2.0127 132.49 2.0127ZM98.6125 112.901H84.5854C84.1225 112.969 83.6529 112.633 83.5188 112.164L78.0179 96.1977H53.0629L47.9646 111.962C47.8304 112.566 47.2938 112.969 46.69 112.908H34.0783C33.3404 112.908 33.1392 112.499 33.3404 111.701L54.9412 49.5077C55.1425 48.8369 55.3438 48.0989 55.6121 47.2939C55.8804 45.8852 56.0146 44.4094 56.0146 42.9335C55.9475 42.5981 56.2158 42.2627 56.5513 42.1956H73.9258C74.4625 42.1956 74.7308 42.3969 74.7979 42.7323L99.2833 111.828C99.4846 112.559 99.2833 112.901 98.6125 112.901ZM121.421 111.895C121.421 112.633 121.159 112.969 120.555 112.969H107.4C106.73 112.969 106.394 112.559 106.394 111.895V60.241C106.394 59.5702 106.669 59.3019 107.273 59.3019H120.555C121.159 59.3019 121.421 59.6373 121.421 60.241V111.895ZM120.019 51.319C119.227 52.1235 118.271 52.7493 117.217 53.1543C116.163 53.5593 115.035 53.734 113.908 53.6669C111.694 53.7339 109.547 52.8619 107.93 51.319C106.393 49.6384 105.575 47.4234 105.65 45.1473C105.582 42.8664 106.455 40.7198 108.058 39.1769C109.681 37.6339 111.828 36.8289 114.042 36.8289C116.665 36.8289 118.664 37.6339 120.146 39.1769C121.622 40.7869 122.427 42.9335 122.36 45.1473C122.427 47.4281 121.622 49.6419 120.019 51.319Z" fill="#4B1E14"/>
</g>
<defs>
<clipPath id="clip0_10_74">
<rect width="161" height="161" fill="white"/>
</clipPath>
</defs>
</svg>
