<svg width="227" height="228" viewBox="0 0 227 228" fill="none" xmlns="http://www.w3.org/2000/svg">
<rect x="39.0156" y="74.436" width="175.57" height="146.063" fill="black"/>
<path fill-rule="evenodd" clip-rule="evenodd" d="M0 0H227V228H0V0ZM173.532 191.14C163.005 191.14 157.056 185.63 152.487 178.125L135.15 188.243C141.412 200.669 154.209 210.15 174.024 210.15C194.284 210.15 209.37 199.586 209.37 180.291C209.37 162.403 199.136 154.451 181.014 146.633L175.679 144.343C166.523 140.353 162.56 137.76 162.56 131.328C162.56 126.132 166.533 122.151 172.775 122.151C178.895 122.151 182.839 124.745 186.499 131.328L203.108 120.621C196.081 108.205 186.339 103.465 172.775 103.465C153.726 103.465 141.535 115.701 141.535 131.775C141.535 149.207 151.749 157.462 167.148 164.046L172.482 166.345C182.215 170.62 188.013 173.223 188.013 180.566C188.013 186.704 182.366 191.14 173.532 191.14ZM90.8662 190.997C83.536 190.997 80.4809 185.962 77.1327 179.977L59.7672 190.541C64.799 201.238 74.6925 210.112 91.7647 210.112C110.672 210.112 123.62 200.013 123.62 177.831V104.681H102.292V177.545C102.292 188.252 97.8654 190.997 90.8567 190.997H90.8662Z" fill="#FFE600"/>
</svg>
