<svg width="78" height="78" viewBox="0 0 78 78" fill="none" xmlns="http://www.w3.org/2000/svg">
<g clip-path="url(#clip0_10_119)">
<path d="M76.6275 42.2341L61.546 62.0195C60.632 62.882 59.5275 63.3132 58.2327 63.3132C56.9378 63.3132 55.8334 62.8693 54.9193 61.9815C54.0053 61.0937 53.5483 60.0029 53.5483 58.7093C53.5483 57.4156 54.0053 56.3122 54.9193 55.399L67.4872 38.962L54.9193 22.5249C54.0053 21.6117 53.5483 20.521 53.5483 19.2527C53.5483 17.9844 54.0053 16.8937 54.9193 15.9805C55.8334 15.0673 56.9378 14.6107 58.2327 14.6107C59.5275 14.6107 60.632 15.0673 61.546 15.9805L76.6275 35.6898C77.5415 36.6029 77.9985 37.6937 77.9985 38.962C77.9985 40.2302 77.5415 41.321 76.6275 42.2341ZM39 73.1298C38.9492 73.282 38.8731 73.5737 38.7715 74.0049C38.6699 74.4361 38.5938 74.7278 38.543 74.88L38.2764 75.679L37.8956 76.4781L37.3243 77.0868L36.5245 77.6195L35.4962 77.8859L34.1252 78C32.9065 78 31.7386 77.3659 30.6214 76.0976C29.5043 74.8293 29.098 73.6117 29.4027 72.4449L39 4.87024C39.8633 1.62341 42.3007 0 46.3122 0C47.4294 0 48.1784 0.596098 48.5592 1.78829C48.9401 2.98049 48.9528 4.2361 48.5973 5.55512L39 73.1298ZM23.0807 61.9815C22.1667 62.8693 21.0622 63.3132 19.7673 63.3132C18.4725 63.3132 17.368 62.882 16.454 62.0195L1.37254 42.2341C0.458509 41.321 0.00149536 40.2302 0.00149536 38.962C0.00149536 37.6937 0.458509 36.6029 1.37254 35.6898L16.454 15.9805C17.368 15.0673 18.4725 14.6107 19.7673 14.6107C21.0622 14.6107 22.1667 15.0673 23.0807 15.9805C23.9947 16.8937 24.4517 17.9844 24.4517 19.2527C24.4517 20.521 23.9947 21.6117 23.0807 22.5249L10.5128 38.962L23.0807 55.399C23.9947 56.3122 24.4517 57.4156 24.4517 58.7093C24.4517 60.0029 23.9947 61.0937 23.0807 61.9815Z" fill="#0084FF"/>
</g>
<defs>
<clipPath id="clip0_10_119">
<rect width="78" height="78" fill="white"/>
</clipPath>
</defs>
</svg>
