<svg width="78" height="82" viewBox="0 0 78 82" fill="none" xmlns="http://www.w3.org/2000/svg">
<g filter="url(#filter0_d_14_163)">
<path d="M12.1875 73.125C11.541 73.125 10.921 72.8682 10.4639 72.4111C10.0068 71.954 9.75 71.334 9.75 70.6875C9.75 70.041 10.0068 69.421 10.4639 68.9639C10.921 68.5068 11.541 68.25 12.1875 68.25H17.0625V63.375C17.0615 59.236 18.2315 55.1811 20.4372 51.6788C22.643 48.1765 25.7946 45.3696 29.5279 43.5825C30.9416 42.9049 31.6875 41.7446 31.6875 40.7063V37.2938C31.6875 36.2554 30.9368 35.0951 29.5279 34.4175C25.7946 32.6304 22.643 29.8235 20.4372 26.3212C18.2315 22.8189 17.0615 18.764 17.0625 14.625V9.75H12.1875C11.541 9.75 10.921 9.49319 10.4639 9.03607C10.0068 8.57895 9.75 7.95897 9.75 7.3125C9.75 6.66603 10.0068 6.04605 10.4639 5.58893C10.921 5.13181 11.541 4.875 12.1875 4.875H65.8125C66.459 4.875 67.079 5.13181 67.5361 5.58893C67.9932 6.04605 68.25 6.66603 68.25 7.3125C68.25 7.95897 67.9932 8.57895 67.5361 9.03607C67.079 9.49319 66.459 9.75 65.8125 9.75H60.9375V14.625C60.9385 18.764 59.7685 22.8189 57.5628 26.3212C55.357 29.8235 52.2054 32.6304 48.4721 34.4175C47.0584 35.0951 46.3125 36.2554 46.3125 37.2938V40.7063C46.3125 41.7446 47.0632 42.9049 48.4721 43.5825C52.2054 45.3696 55.357 48.1765 57.5628 51.6788C59.7685 55.1811 60.9385 59.236 60.9375 63.375V68.25H65.8125C66.459 68.25 67.079 68.5068 67.5361 68.9639C67.9932 69.421 68.25 70.041 68.25 70.6875C68.25 71.334 67.9932 71.954 67.5361 72.4111C67.079 72.8682 66.459 73.125 65.8125 73.125H12.1875ZM21.9375 9.75V14.625C21.9375 17.2429 22.5225 19.7194 23.5804 21.9375H54.4196C55.4726 19.7194 56.0625 17.2429 56.0625 14.625V9.75H21.9375ZM36.5625 40.7063C36.5625 44.1236 34.2322 46.7318 31.6339 47.9798C28.7298 49.3697 26.2783 51.5529 24.5624 54.2771C22.8466 57.0014 21.9366 60.1555 21.9375 63.375C21.9375 63.375 26.1593 57.0424 36.5625 56.16V40.7063ZM41.4375 40.7063V56.16C51.8408 57.0424 56.0625 63.375 56.0625 63.375C56.0634 60.1555 55.1534 57.0014 53.4375 54.2771C51.7217 51.5529 49.2702 49.3697 46.3661 47.9798C43.7677 46.7318 41.4375 44.1285 41.4375 40.7111V40.7063Z" fill="#0084FF"/>
</g>
<defs>
<filter id="filter0_d_14_163" x="-4" y="0" width="86" height="86" filterUnits="userSpaceOnUse" color-interpolation-filters="sRGB">
<feFlood flood-opacity="0" result="BackgroundImageFix"/>
<feColorMatrix in="SourceAlpha" type="matrix" values="0 0 0 0 0 0 0 0 0 0 0 0 0 0 0 0 0 0 127 0" result="hardAlpha"/>
<feOffset dy="4"/>
<feGaussianBlur stdDeviation="2"/>
<feComposite in2="hardAlpha" operator="out"/>
<feColorMatrix type="matrix" values="0 0 0 0 0 0 0 0 0 0 0 0 0 0 0 0 0 0 0.25 0"/>
<feBlend mode="normal" in2="BackgroundImageFix" result="effect1_dropShadow_14_163"/>
<feBlend mode="normal" in="SourceGraphic" in2="effect1_dropShadow_14_163" result="shape"/>
</filter>
</defs>
</svg>
