<svg width="71" height="71" viewBox="0 0 71 71" fill="none" xmlns="http://www.w3.org/2000/svg">
<path fill-rule="evenodd" clip-rule="evenodd" d="M14.2036 57.8015C13.5923 57.8015 13.2124 57.3197 13.356 56.7221L14.6013 51.5391C14.7447 50.9428 14.9774 49.9754 15.12 49.3808L23.5448 14.3198C23.6879 13.7241 24.3 13.2409 24.911 13.2409H47.527C47.6726 13.2411 47.8168 13.27 47.9513 13.3259C48.0857 13.3819 48.2079 13.4638 48.3107 13.5669C48.4135 13.6701 48.4949 13.7925 48.5504 13.9271C48.6058 14.0618 48.6342 14.2061 48.6339 14.3517V21.3003C48.6337 21.5947 48.5166 21.877 48.3085 22.0852C48.1003 22.2934 47.8181 22.4105 47.5237 22.4108H32.3114C31.6982 22.4108 31.0747 22.8911 30.9191 23.4846L22.1881 56.7279C22.0322 57.3208 21.4071 57.8015 20.7991 57.8015H14.2036Z" fill="white"/>
<path fill-rule="evenodd" clip-rule="evenodd" d="M26.079 57.5799C25.4677 57.5799 25.1033 57.1006 25.2655 56.5071L33.1254 27.7494C33.2877 27.1567 33.9134 26.6763 34.5271 26.6763H36.5495C37.1616 26.6763 37.7657 27.1617 37.898 27.7579L44.2808 56.4985C44.4136 57.0959 44.0248 57.5802 43.4127 57.5802H42.0332C41.4211 57.5802 40.8298 57.0932 40.7124 56.493L36.8219 36.5877C36.7046 35.987 36.1102 35.5003 35.4989 35.5003H35.8573C35.2438 35.5003 34.6203 35.982 34.465 36.5728L29.2271 56.5077C29.0718 57.1001 28.4502 57.5802 27.8387 57.5802H26.0787L26.079 57.5799Z" fill="white" stroke="white"/>
<path fill-rule="evenodd" clip-rule="evenodd" d="M40.7216 26.6843C40.1081 26.6843 39.7254 27.165 39.8685 27.7652L46.7439 56.6106C46.8861 57.2074 47.4979 57.6914 48.1114 57.6914H49.659C50.2722 57.6914 50.6552 57.2107 50.5132 56.6106L43.6723 27.7652C43.5308 27.168 42.9184 26.6843 42.305 26.6843H40.7216ZM48.7241 26.2933C49.337 26.2933 49.953 26.7778 50.098 27.3688L57.2413 56.4672C57.3872 57.0615 57.01 57.543 56.394 57.543H54.51C53.8963 57.543 53.2797 57.0585 53.1347 56.4672L45.9964 27.3691C45.8508 26.775 46.2274 26.2936 46.8423 26.2936H48.7241V26.2933Z" fill="white"/>
</svg>
