<svg width="78" height="78" viewBox="0 0 78 78" fill="none" xmlns="http://www.w3.org/2000/svg">
<path d="M68.25 56.0625V64.8034L56.0625 52.6159V36.5625C56.0623 36.1099 55.936 35.6664 55.698 35.2815C55.4599 34.8967 55.1194 34.5857 54.7146 34.3834L41.4375 27.7412V14.2058L47.7409 20.5091L51.1875 17.0625L39 4.875L26.8125 17.0625L30.2591 20.5091L36.5625 14.2058V27.7436L23.2854 34.3809C22.8802 34.5834 22.5395 34.8948 22.3014 35.2801C22.0633 35.6655 21.9373 36.1095 21.9375 36.5625V52.6159L9.75 64.8034V56.0625H4.875V73.125H21.9375V68.25H13.1966L24.8552 56.5914L37.9104 63.1191C38.2488 63.2879 38.6218 63.3759 39 63.3759C39.3782 63.3759 39.7512 63.2879 40.0896 63.1191L53.1448 56.5914L64.8034 68.25H56.0625V73.125H73.125V56.0625H68.25ZM36.5625 56.9936L26.8125 52.1186V40.5064L36.5625 45.3814V56.9936ZM39 41.1499L29.8253 36.5625L39 31.9751L48.1748 36.5625L39 41.1499ZM51.1875 52.1186L41.4375 56.9936V45.3814L51.1875 40.5064V52.1186Z" fill="#0084FF"/>
</svg>
