<svg width="184" height="184" viewBox="0 0 184 184" fill="none" xmlns="http://www.w3.org/2000/svg">
<rect width="184" height="184" transform="matrix(1 0 0 -1 0 184)" fill="white"/>
<path fill-rule="evenodd" clip-rule="evenodd" d="M36.8093 149.795C35.2252 149.795 34.2405 148.547 34.6128 146.998L37.84 133.566C38.2116 132.021 38.8146 129.514 39.1841 127.973L61.0176 37.1105C61.3884 35.5666 62.9747 34.3146 64.5581 34.3146H123.169C123.546 34.315 123.92 34.3899 124.268 34.5349C124.617 34.6798 124.933 34.892 125.199 35.1593C125.466 35.4267 125.677 35.7439 125.821 36.0929C125.964 36.4419 126.038 36.8157 126.037 37.1932V55.2007C126.037 55.9637 125.733 56.6952 125.194 57.2348C124.654 57.7744 123.923 58.0778 123.16 58.0786H83.7365C82.1474 58.0786 80.5316 59.3235 80.1284 60.8616L57.5014 147.013C57.0975 148.55 55.4774 149.795 53.9019 149.795H36.8093Z" fill="#0084FF"/>
<path fill-rule="evenodd" clip-rule="evenodd" d="M67.5848 149.221C66.0007 149.221 65.0562 147.979 65.4767 146.441L85.8461 71.9138C86.2665 70.3778 87.888 69.1329 89.4786 69.1329H94.7197C96.306 69.1329 97.8715 70.3907 98.2143 71.9361L114.756 146.419C115.1 147.967 114.092 149.222 112.506 149.222H108.931C107.345 149.222 105.812 147.96 105.508 146.404L95.4256 94.8189C95.1215 93.2621 93.5812 92.0007 91.9971 92.0007H92.9257C91.3359 92.0007 89.7201 93.2491 89.3176 94.7801L75.7433 146.442C75.3408 147.978 73.7301 149.222 72.1452 149.222H67.5841L67.5848 149.221Z" fill="#0084FF" stroke="#0084FF"/>
<path fill-rule="evenodd" clip-rule="evenodd" d="M105.532 69.1538C103.942 69.1538 102.95 70.3993 103.321 71.9547L121.139 146.709C121.508 148.256 123.093 149.51 124.683 149.51H128.694C130.283 149.51 131.275 148.264 130.907 146.709L113.179 71.9547C112.812 70.4073 111.225 69.1538 109.635 69.1538H105.532ZM126.271 68.1403C127.859 68.1403 129.456 69.396 129.831 70.9276L148.344 146.337C148.722 147.878 147.744 149.125 146.148 149.125H141.265C139.675 149.125 138.077 147.87 137.701 146.337L119.202 70.9284C118.824 69.3888 119.801 68.141 121.394 68.141H126.271V68.1403Z" fill="#0084FF"/>
</svg>
