<svg width="78" height="78" viewBox="0 0 78 78" fill="none" xmlns="http://www.w3.org/2000/svg">
<path d="M45.5 12.5C39.2275 12.5 34.125 17.6025 34.125 23.875C34.125 28.9255 37.4562 33.1667 42.0225 34.6487C41.548 37.6777 40.2448 40.1737 38.025 42.1985C31.7005 47.9607 20.0623 48.4873 14.625 48.3963V28.2202C19.305 26.8097 22.75 22.51 22.75 17.375C22.75 11.1025 17.6475 6 11.375 6C5.1025 6 0 11.1025 0 17.375C0 22.51 3.445 26.8097 8.125 28.2202V48.7798C3.445 50.1903 0 54.49 0 59.625C0 65.8975 5.1025 71 11.375 71C17.6475 71 22.75 65.8975 22.75 59.625C22.75 57.8343 22.295 56.1638 21.5573 54.6558C28.2523 54.0513 36.6925 52.1955 42.3865 47.0182C45.9517 43.778 48.0122 39.6602 48.5745 34.7722C53.3487 33.4235 56.875 29.075 56.875 23.875C56.875 17.6025 51.7725 12.5 45.5 12.5ZM6.5 17.375C6.5 14.6873 8.68725 12.5 11.375 12.5C14.0627 12.5 16.25 14.6873 16.25 17.375C16.25 20.0627 14.0627 22.25 11.375 22.25C8.68725 22.25 6.5 20.0627 6.5 17.375ZM11.375 64.5C8.68725 64.5 6.5 62.3128 6.5 59.625C6.50162 58.3433 7.00795 57.1137 7.90939 56.2026C8.81083 55.2914 10.0349 54.7719 11.3165 54.7565L11.739 54.789C12.3766 54.8129 13.0033 54.9622 13.5833 55.2282C14.1632 55.4943 14.6851 55.8721 15.1191 56.3398C15.553 56.8076 15.8906 57.3563 16.1125 57.9545C16.3345 58.5528 16.4364 59.1889 16.4125 59.8265C16.3886 60.4641 16.2393 61.0908 15.9732 61.6708C15.7072 62.2507 15.3294 62.7726 14.8617 63.2066C14.3939 63.6405 13.8452 63.9781 13.247 64.2001C12.6487 64.422 12.0126 64.5239 11.375 64.5ZM45.5 28.75C42.8122 28.75 40.625 26.5627 40.625 23.875C40.625 21.1873 42.8122 19 45.5 19C48.1878 19 50.375 21.1873 50.375 23.875C50.375 26.5627 48.1878 28.75 45.5 28.75Z" fill="#0084FF"/>
</svg>
