<svg width="78" height="78" viewBox="0 0 78 78" fill="none" xmlns="http://www.w3.org/2000/svg">
<path d="M18.1188 6.74057C18.5325 6.93952 18.8817 7.25129 19.1261 7.63997C19.3704 8.02866 19.5 8.47845 19.5 8.93757C19.5 11.6351 20.514 13.1886 21.7848 15.0801L21.879 15.2166C22.958 16.8221 24.375 18.9248 24.375 21.9376C24.375 25.0121 22.8248 27.7226 20.462 29.3313C21.0828 29.8513 21.632 30.4916 22.1065 31.2586C23.6535 33.7611 24.375 37.5863 24.375 43.0788C24.375 48.6428 23.6275 55.3248 22.4088 60.6613C21.8043 63.3133 21.0535 65.7606 20.1598 67.5968C19.7145 68.5101 19.1718 69.4006 18.5023 70.0993C17.8328 70.7851 16.8025 71.5163 15.4375 71.5163C14.0725 71.5163 13.0423 70.7851 12.376 70.0993C11.6974 69.3559 11.1383 68.5117 10.7185 67.5968C9.8215 65.7573 9.07075 63.3133 8.46625 60.6581C7.19858 54.882 6.53957 48.989 6.5 43.0756C6.5 37.5831 7.2215 33.7611 8.7685 31.2586C9.20984 30.5322 9.76509 29.8815 10.413 29.3313C9.20652 28.5122 8.21905 27.41 7.53692 26.1211C6.8548 24.8322 6.49878 23.3958 6.5 21.9376C6.5 20.7416 6.5 18.6843 7.74475 16.0291C8.9635 13.4291 11.2808 10.4423 15.5383 7.03307C15.8971 6.74604 16.3297 6.56629 16.7863 6.51453C17.2429 6.46278 17.7048 6.54114 18.1188 6.74057ZM11.375 21.9343V21.9376C11.375 23.015 11.803 24.0483 12.5649 24.8102C13.3267 25.5721 14.3601 26.0001 15.4375 26.0001C16.5149 26.0001 17.5483 25.5721 18.3101 24.8102C19.072 24.0483 19.5 23.015 19.5 21.9376C19.5 20.5108 18.8988 19.5228 17.7385 17.7971L17.6995 17.7386C16.9553 16.6336 16.0745 15.3238 15.4505 13.6436C13.6858 15.4376 12.7108 16.9261 12.1615 18.0961C11.375 19.7731 11.375 20.9658 11.375 21.9311V21.9343ZM12.9155 33.8196C12.1095 35.1261 11.375 37.8041 11.375 43.0788C11.375 48.2821 12.0835 54.6001 13.2178 59.5758C13.7898 62.0783 14.4398 64.1096 15.0995 65.4616C15.2198 65.7118 15.3335 65.9198 15.4375 66.0953C15.5415 65.9198 15.6553 65.7118 15.7755 65.4616C16.4353 64.1096 17.0853 62.0751 17.6573 59.5758C18.7948 54.6033 19.5 48.2853 19.5 43.0788C19.5 37.8041 18.7655 35.1261 17.9595 33.8196C17.7164 33.3797 17.349 33.0214 16.9033 32.7893C16.4417 32.5883 15.9405 32.495 15.4375 32.5163C14.7875 32.5163 14.3228 32.6171 13.9718 32.7893C13.526 33.0214 13.1586 33.3797 12.9155 33.8196Z" fill="#0084FF"/>
<path d="M32.5 48.4803C30.7782 48.1915 29.1033 47.6711 27.521 46.9333C27.6161 45.09 27.6432 43.2438 27.6023 41.3985C29.068 42.3833 30.7223 43.108 32.5 43.511V34.125C32.5 32.8321 33.0136 31.5921 33.9279 30.6779C34.8421 29.7636 36.0821 29.25 37.375 29.25H50.375C50.3749 26.5223 49.6119 23.8489 48.1722 21.532C46.7325 19.2152 44.6736 17.347 42.2281 16.1388C39.7825 14.9306 37.0478 14.4303 34.3329 14.6947C31.618 14.959 29.0311 15.9773 26.8645 17.6345C26.2145 15.8373 25.2883 14.4625 24.6448 13.507L24.5148 13.312C27.4347 11.2536 30.8641 10.037 34.4285 9.79484C37.9928 9.55272 41.5552 10.2945 44.7267 11.9391C47.8982 13.5837 50.557 16.068 52.4128 19.1208C54.2686 22.1735 55.25 25.6774 55.25 29.25H66.625C67.9179 29.25 69.1579 29.7636 70.0721 30.6779C70.9864 31.5921 71.5 32.8321 71.5 34.125V63.375C71.5 64.668 70.9864 65.9079 70.0721 66.8222C69.1579 67.7364 67.9179 68.25 66.625 68.25H37.375C36.0821 68.25 34.8421 67.7364 33.9279 66.8222C33.0136 65.9079 32.5 64.668 32.5 63.375V48.4803ZM37.375 48.685V63.375H66.625V34.125H54.6325C53.6199 38.0413 51.4153 41.5462 48.3236 44.1546C45.2319 46.7631 41.4059 48.3462 37.375 48.685ZM49.543 34.125H37.375V43.7873C40.1056 43.4811 42.695 42.4126 44.8468 40.7039C46.9986 38.9952 48.6261 36.7153 49.543 34.125Z" fill="#0084FF"/>
</svg>
