<svg width="161" height="161" viewBox="0 0 161 161" fill="none" xmlns="http://www.w3.org/2000/svg">
<path d="M15.934 17.6948H145.066V143.305H15.934V17.6948Z" fill="#0C0824"/>
<path d="M15.934 17.6947H145.066V143.305H15.934V17.6947ZM10.0625 149.176H150.938V11.8232H10.0625V149.176ZM105.037 68.1732C100.399 68.1732 98.8137 70.5228 98.8137 72.4599C98.8137 74.573 99.8703 76.0421 106.094 79.2671C115.311 83.7299 118.169 88.0115 118.169 94.2955C118.169 103.689 111.009 108.735 101.324 108.735C97.1678 108.889 93.0365 108.026 89.2896 106.22C88.877 106.043 88.8217 105.752 88.8217 105.279V96.64C88.8217 96.0514 89.1135 95.8753 89.5261 96.1721C93.0449 98.4349 97.1408 99.6366 101.324 99.6336C105.963 99.6336 107.9 97.6966 107.9 95.0552C107.9 92.9421 106.552 91.0654 100.62 88.0115C92.2832 84.0217 88.8217 79.9615 88.8217 73.2196C88.8217 65.6476 94.7485 59.3686 105.022 59.3686C108.599 59.215 112.17 59.7742 115.528 61.0138C115.721 61.1393 115.877 61.3141 115.981 61.5201C116.084 61.7261 116.131 61.956 116.116 62.1861V70.2361C116.116 70.704 115.824 71.0008 115.236 70.8247C112.132 69.0381 108.603 68.1253 105.022 68.1833L105.037 68.1732ZM54.5538 75.1566C55.9022 75.2723 56.9588 75.2723 59.3084 75.2723C66.176 75.2723 72.6311 72.8674 72.6311 63.5344C72.6311 56.0781 67.9923 52.3248 60.1888 52.3248C57.8393 52.3248 55.6104 52.4405 54.5538 52.5009V75.1566ZM44.1039 43.9629C44.1039 43.5503 44.924 43.2585 45.397 43.2585C50.4423 43.0523 55.4915 42.955 60.541 42.9667C76.802 42.9667 83.1414 51.8871 83.1414 63.2778C83.1414 78.1854 72.3393 84.5852 59.0769 84.5852C56.8481 84.5852 56.0833 84.4695 54.4985 84.4695V107.009C54.4985 107.477 54.3224 107.714 53.7941 107.714H44.8133C44.3454 107.714 44.109 107.538 44.109 107.009V43.988L44.1039 43.9629Z" fill="#31C5F0"/>
</svg>
