<svg width="237" height="211" viewBox="0 0 237 211" fill="none" xmlns="http://www.w3.org/2000/svg">
<path d="M194.861 68.3194C192.339 67.4544 189.795 66.653 187.232 65.9161C187.663 64.1577 188.059 62.4207 188.411 60.7142C194.186 32.691 190.411 10.1149 177.516 2.68176C165.152 -4.44412 144.932 2.98623 124.511 20.7519C122.499 22.5059 120.531 24.3105 118.609 26.1638C117.323 24.9314 116.014 23.7229 114.683 22.5389C93.2809 3.54334 71.8288 -4.46263 58.9476 2.99178C46.595 10.1399 42.9372 31.363 48.1364 57.9212C48.6536 60.5515 49.2377 63.1683 49.8879 65.7689C46.8514 66.6314 43.9213 67.5495 41.1171 68.5267C16.0249 77.2721 0.000610352 90.9769 0.000610352 105.193C0.000610352 119.875 17.2034 134.601 43.3381 143.531C45.4569 144.252 47.5933 144.92 49.7454 145.534C49.0464 148.335 48.4259 151.155 47.8846 153.991C42.928 180.088 46.7986 200.81 59.1179 207.913C71.8418 215.248 93.1976 207.709 113.991 189.538C115.678 188.061 117.327 186.542 118.937 184.982C121.018 186.989 123.154 188.937 125.343 190.825C145.486 208.151 165.38 215.148 177.687 208.025C190.399 200.669 194.53 178.409 189.166 151.326C188.744 149.204 188.27 147.093 187.745 144.994C189.245 144.55 190.717 144.092 192.152 143.617C219.322 134.619 236.999 120.071 236.999 105.193C236.999 90.9251 220.458 77.1277 194.861 68.3194ZM188.968 134.011C187.672 134.439 186.343 134.853 184.987 135.255C181.988 125.763 177.94 115.67 172.987 105.242C177.714 95.0618 181.606 85.0976 184.521 75.6674C186.945 76.3689 189.298 77.1083 191.566 77.8885C213.498 85.4363 226.875 96.5943 226.875 105.193C226.875 114.351 212.427 126.24 188.968 134.011ZM179.235 153.291C181.607 165.267 181.944 176.094 180.373 184.559C178.963 192.165 176.124 197.236 172.614 199.267C165.145 203.589 149.173 197.972 131.947 183.153C129.911 181.398 127.923 179.587 125.988 177.721C132.666 170.42 139.34 161.933 145.854 152.507C157.311 151.49 168.136 149.828 177.952 147.56C178.435 149.51 178.864 151.422 179.235 153.291ZM80.7987 198.52C73.5017 201.096 67.6897 201.17 64.1764 199.145C56.7007 194.835 53.5929 178.197 57.832 155.879C58.3359 153.242 58.9129 150.619 59.5623 148.014C69.27 150.161 80.0155 151.704 91.4997 152.635C98.058 161.859 104.924 170.337 111.845 177.761C110.374 179.183 108.869 180.57 107.33 181.918C98.1339 189.953 88.9196 195.653 80.7987 198.52ZM46.6135 133.954C35.057 130.005 25.5132 124.874 18.9716 119.274C13.0929 114.242 10.1258 109.246 10.1258 105.193C10.1258 96.5657 22.9913 85.5622 44.4499 78.0837C47.0541 77.1768 49.7796 76.3208 52.6079 75.5175C55.5741 85.1606 59.4642 95.2432 64.1588 105.439C59.4031 115.785 55.4574 126.029 52.4625 135.786C50.4981 135.223 48.5478 134.613 46.6135 133.954ZM58.0727 55.9768C53.6188 33.2231 56.5767 16.059 64.0209 11.7511C71.9492 7.16273 89.4816 13.7047 107.961 30.1071C109.166 31.1791 110.352 32.2729 111.517 33.3878C104.631 40.7793 97.8274 49.1943 91.3276 58.3636C80.1812 59.3963 69.5116 61.0547 59.7021 63.2767C59.0977 60.8578 58.5544 58.424 58.0727 55.9778V55.9768ZM160.303 81.2117C157.986 77.211 155.584 73.2606 153.096 69.3633C160.658 70.3193 167.903 71.5881 174.707 73.1391C172.664 79.6838 170.119 86.5256 167.122 93.5404C164.931 89.3859 162.658 85.2755 160.303 81.2117ZM118.614 40.621C123.284 45.6786 127.961 51.3247 132.561 57.4511C123.229 57.0105 113.882 57.0087 104.549 57.4455C109.154 51.3756 113.871 45.7369 118.614 40.621ZM76.6568 81.2811C74.3315 85.3122 72.1007 89.3969 69.9662 93.5321C67.0185 86.5422 64.4958 79.669 62.4359 73.0318C69.1978 71.5196 76.4087 70.2832 83.9223 69.3448C81.4073 73.2659 78.9848 77.2454 76.6568 81.2802V81.2811ZM84.138 141.76C76.3753 140.894 69.0561 139.722 62.2961 138.25C64.3884 131.495 66.9667 124.475 69.9782 117.335C72.1212 121.473 74.3613 125.561 76.6966 129.594C79.098 133.74 81.5847 137.8 84.138 141.76ZM118.893 170.477C114.094 165.302 109.308 159.576 104.634 153.418C109.172 153.596 113.798 153.687 118.5 153.687C123.331 153.687 128.106 153.578 132.806 153.369C128.191 159.638 123.532 165.372 118.893 170.477ZM167.217 116.971C170.385 124.189 173.055 131.172 175.175 137.812C168.304 139.379 160.885 140.642 153.068 141.579C155.573 137.609 157.998 133.59 160.343 129.524C162.727 125.391 165.019 121.206 167.217 116.971ZM151.573 124.468C147.983 130.702 144.192 136.817 140.204 142.805C132.981 143.317 125.741 143.571 118.5 143.567C111.124 143.567 103.951 143.337 97.0424 142.889C92.9507 136.916 89.0865 130.789 85.4581 124.523H85.4591C81.8478 118.29 78.4746 111.923 75.3468 105.434C78.4666 98.9439 81.8296 92.5733 85.4285 86.3359L85.4276 86.3368C89.0251 80.0977 92.8585 73.9974 96.9193 68.0492C103.967 67.5161 111.195 67.2385 118.499 67.2385H118.5C125.838 67.2385 133.075 67.5189 140.121 68.0557C144.14 73.995 147.949 80.0743 151.54 86.2822C155.151 92.5059 158.558 98.8455 161.757 105.291C158.591 111.802 155.195 118.198 151.573 124.468ZM172.459 11.4494C180.395 16.0247 183.481 34.4752 178.495 58.6708C178.177 60.2144 177.819 61.7867 177.43 63.3813C167.597 61.1121 156.92 59.425 145.741 58.3765C139.229 49.1064 132.481 40.6784 125.707 33.3823C127.483 31.6716 129.3 30.0053 131.158 28.3849C148.655 13.1642 165.008 7.1544 172.459 11.4494ZM118.5 84.0371C130.188 84.0371 139.663 93.5089 139.663 105.193C139.663 116.876 130.188 126.348 118.5 126.348C106.812 126.348 97.3368 116.876 97.3368 105.193C97.3368 93.5089 106.812 84.0371 118.5 84.0371Z" fill="#00D8FF"/>
</svg>
