<svg width="172" height="164" viewBox="0 0 172 164" fill="none" xmlns="http://www.w3.org/2000/svg">
<path d="M148.105 94.2775C142.105 94.3169 136.89 96.1543 132.523 98.8706C130.92 94.836 129.318 91.2417 129.036 88.6051C128.721 85.5299 128.345 83.6522 128.721 79.9774C129.099 76.3026 130.795 71.0696 130.764 70.6704C130.733 70.2712 130.386 68.3936 126.931 68.3542C123.475 68.3139 120.49 69.1928 120.145 70.3509C119.799 71.509 119.14 74.1457 118.7 76.8611C118.103 80.8563 111.788 95.1153 108.176 102.585C107.013 99.6698 106.008 97.1129 105.787 95.0759C105.474 92.0007 105.096 90.123 105.474 86.4482C105.851 82.7733 107.547 77.5412 107.516 77.1412C107.484 76.742 107.138 74.8643 103.683 74.8249C100.226 74.7847 97.2418 75.6636 96.8969 76.8217C96.5512 77.9807 96.1739 80.6961 95.4517 83.3327C94.7288 85.9693 86.3408 109.776 84.1417 115.926C83.253 118.416 82.3208 120.88 81.3457 123.316C81.3457 123.316 81.314 123.436 81.2197 123.636C80.9134 124.4 80.5994 125.159 80.2778 125.913V125.952C79.8062 127.031 79.3036 128.029 79.0523 128.029C78.8637 128.029 78.518 125.154 79.115 121.239C80.3715 112.971 83.3561 100.109 83.3251 99.6698C83.3251 99.43 83.8904 97.1934 81.3774 96.0344C78.9263 94.8763 78.0471 96.7934 77.8268 96.7934C77.6071 96.7934 77.4495 97.4726 77.4495 97.4726C77.4495 97.4726 80.1835 83.0132 72.2348 83.0132C67.2714 83.0132 60.4222 89.9234 57.0292 96.1543C53.1722 98.823 49.3184 101.499 45.4679 104.183C43.6152 105.502 41.6984 106.82 39.9076 108.058C39.7816 107.898 39.6563 107.698 39.5303 107.539C29.9168 94.4771 12.1356 85.2498 12.8895 67.7151C13.1724 61.324 14.8999 44.5475 47.0391 24.1766C73.4913 7.59969 94.5408 12.1928 98.185 22.3786C103.4 36.9186 86.9067 63.9204 59.5739 67.8342C49.1438 69.3127 43.6772 64.1997 42.2953 62.2826C40.8502 60.285 40.6298 60.1651 40.0956 60.5651C39.2164 61.1647 39.7816 62.9619 40.0956 64.0001C40.9128 66.7155 44.2741 71.509 49.9604 73.8664C54.9871 75.9428 67.208 77.1018 82.0053 69.8318C98.5617 61.683 111.505 39.0353 107.704 20.0624C103.902 0.809405 78.7693 -5.54144 54.9871 5.20292C40.8502 11.5949 25.5186 21.6599 14.4916 34.7617C1.39083 50.339 -0.682929 63.8801 0.165304 69.5526C3.21328 89.6836 25.0477 102.785 33.7813 112.491C33.3414 112.811 32.9324 113.091 32.5875 113.331C28.2203 116.087 11.5696 127.15 7.42278 138.854C2.71068 152.115 8.17736 161.623 11.7899 162.9C23.0056 166.855 34.5352 159.745 40.7242 148.001C46.9131 136.258 46.1592 120.999 43.3005 114.009C43.2689 113.93 43.2379 113.849 43.1745 113.769C44.3058 112.931 45.4679 112.052 46.5991 111.213C48.6782 109.651 50.7837 108.146 52.9141 106.699C51.8455 110.414 51.0599 114.848 50.6833 121.239C50.2117 128.749 52.6304 138.494 55.8037 142.329C57.2179 144.008 58.8827 144.047 59.9512 144.047C63.6581 144.047 65.3236 140.132 67.177 135.499C69.4388 129.827 71.4809 123.237 71.4809 123.237C71.4809 123.237 68.9362 141.051 75.848 141.051C78.361 141.051 80.9057 136.897 82.0369 134.78V134.82C82.0369 134.82 82.0996 134.7 82.2256 134.42C82.4769 133.901 82.6339 133.581 82.6339 133.581V133.502C83.6391 131.265 85.9015 126.192 89.2628 117.764C93.5982 106.9 97.7768 93.319 97.7768 93.319C97.7768 93.319 98.154 96.634 99.4416 102.146C100.196 105.382 101.766 108.937 103.023 112.371C102.018 114.17 101.389 115.167 101.389 115.167L101.421 115.208C100.604 116.565 99.7245 118.043 98.7503 119.482C95.3257 124.674 91.2422 130.627 90.6763 132.343C90.016 134.38 90.1736 135.859 91.4308 137.057C92.3417 137.936 93.9749 138.055 95.6403 137.936C98.7193 137.656 100.887 136.697 101.955 136.099C103.62 135.34 105.568 134.181 107.39 132.463C110.752 129.307 112.793 124.794 112.605 118.843C112.511 115.567 111.662 112.292 110.626 109.216C110.94 108.657 111.222 108.098 111.537 107.539C116.846 97.6722 120.962 86.8473 120.962 86.8473C120.962 86.8473 121.339 90.1624 122.627 95.6755C123.255 98.4714 124.544 101.507 125.674 104.463C120.679 109.616 117.6 115.607 116.501 119.522C114.522 126.792 116.061 130.066 118.983 130.825C120.302 131.185 122.187 130.386 123.569 129.627C125.328 128.908 127.402 127.67 129.382 125.832C132.744 122.677 135.979 118.283 135.79 112.332C135.696 109.616 135.131 106.939 134.345 104.343C138.586 102.107 144.053 100.868 151.027 101.906C165.982 104.143 168.935 116.006 168.369 121C167.803 125.992 164.662 128.709 163.626 129.547C162.588 130.387 162.243 130.666 162.337 131.265C162.463 132.144 162.965 132.104 163.845 131.944C165.071 131.665 171.7 127.909 171.982 118.722C172.454 106.979 163.657 94.1576 148.105 94.2775ZM32.7444 143.727C27.7804 150.597 20.8692 153.194 17.8845 150.997C14.6803 148.64 15.9368 138.494 22.0314 131.225C25.7383 126.792 30.5137 122.676 33.687 120.161C34.4092 119.601 35.4778 118.803 36.766 117.804C36.9856 117.644 37.1116 117.564 37.1116 117.564L37.8655 116.965C40.0956 127.35 37.9598 136.498 32.7444 143.727ZM68.8735 112.491C67.1454 117.844 63.5328 131.545 61.3337 130.786C59.4486 130.147 58.2858 119.761 60.9564 109.496C62.3073 104.343 65.1659 98.1913 66.8314 95.7954C69.5331 91.9604 72.5177 90.6815 73.24 92.2405C74.1516 94.2775 69.9414 109.136 68.8735 112.491ZM98.6876 130.626C97.9647 131.105 97.2741 131.425 96.9595 131.185C96.7399 131.025 97.2741 130.386 97.2741 130.386C97.2741 130.386 101.013 125.274 102.489 122.957C103.338 121.599 104.342 120.001 105.411 118.203V118.722C105.411 124.834 100.761 128.948 98.687 130.626H98.6876ZM121.684 123.955C121.15 123.476 121.244 121.878 123.035 116.885C123.726 114.928 125.359 111.653 128.156 108.497C128.47 109.775 128.69 111.014 128.659 112.172C128.627 119.881 124.292 122.757 121.684 123.955Z" fill="#CD6799"/>
</svg>
