<svg width="199" height="199" viewBox="0 0 199 199" fill="none" xmlns="http://www.w3.org/2000/svg">
<g clip-path="url(#clip0_14_152)">
<rect x="-9.32812" width="208.328" height="208.328" fill="white"/>
<path fill-rule="evenodd" clip-rule="evenodd" d="M198.699 186.155C200.457 180.28 194.303 169.028 185.626 156.062C162.899 123.208 120.99 105.747 98.1847 109.021L98.3235 108.122C105.956 98.9614 113.9 88.8011 121.913 82.5959C137.182 91.0853 150.278 87.6631 163.074 73.948C169.23 67.7914 171.72 63.0185 170.614 59.6282C168.746 54.0243 164.25 51.3265 157.124 51.3969C150.474 51.6798 139.987 58.26 135.612 62.1883C119.908 55.1316 108.699 50.9806 101.919 49.8045C76.3247 45.2388 54.1879 53.4032 35.5786 74.224C25.5478 85.6385 20.9824 92.2797 21.951 94.2176C22.7688 95.3145 25.2714 95.0587 27.9 94.7019C34.2093 92.893 48.8805 87.8893 48.8611 84.8778C48.9614 76.57 49.3178 72.295 58.8228 65.6464C72.8795 56.4578 83.47 56.9432 100.814 69.5199C107.11 73.8777 112.193 77.106 115.029 78.6952C103.045 88.7102 92.8498 99.3532 85.3181 110.75C55.2447 118.414 12.373 141.783 1.40505 169.206C-0.206776 173.208 -0.575237 175.202 1.05913 176.193C18.1533 183.247 57.0423 160.372 81.3743 129.36C104.732 126.706 170.413 134.09 165.98 155.093C164.071 159.59 164.114 160.468 164.388 161.596C166.816 168.191 182.707 180.376 193.511 185.74C196.488 187.053 198.215 187.193 198.699 186.155ZM144.189 64.9537C142.745 64.0085 151.497 59.7805 157.887 58.7284C164.292 57.7206 167.563 60.4413 165.218 62.7414C160.13 67.4366 146.625 66.7082 144.189 64.9537ZM29.7676 164.087C21.8861 168.398 14.6288 171.511 11.9894 167.269C11.0896 160.698 16.0704 153.917 26.8623 146.93C39.313 138.951 52.7758 133.779 67.124 131.02L68.7149 131.227C58.1609 143.912 44.557 155.659 29.7676 164.087ZM46.7164 70.8351C44.9868 73.6713 43.8799 76.5082 43.396 79.3443C42.9117 81.6274 42.2883 83.2178 41.4589 84.1184C39.7293 85.916 38.346 86.677 37.3078 86.3999C36.6164 86.3307 36.478 85.916 36.8931 85.2238C37.5154 84.1856 38.8998 81.2123 40.9742 76.2999C43.1193 71.7341 44.9868 69.174 46.6472 68.5525C47.8237 68.2062 47.8237 68.9672 46.7164 70.8351ZM87.0477 51.3265C93.7574 51.1885 101.368 52.7794 109.946 56.1006C114.72 57.9685 121.013 60.7335 128.899 64.5406C136.925 68.0686 142.667 70.0042 146.195 70.3501C146.954 70.9731 146.608 71.2498 145.157 71.2498C138.655 70.9039 132.426 69.5203 126.409 67.0996L109.324 59.1447C101.574 55.7547 94.0341 53.4032 86.7018 52.0187C86.148 51.7412 86.2863 51.5345 87.0477 51.3269V51.3265ZM144.741 126.039C135.403 121.404 124.819 118.222 112.99 116.354C99.3609 115.524 92.5125 114.763 92.3049 114.14C92.1662 113.587 93.0659 113.103 95.0723 112.758C111.903 111.034 130.433 116.326 149.861 127.215C155.309 130.75 150.863 129.219 144.741 126.039ZM165.91 139.597C164.597 138.144 164.25 137.661 164.734 138.007C167.086 139.529 169.508 141.88 172.066 145.132C175.872 149.836 177.048 153.78 175.734 157.03L174.972 157.722C174.35 157.653 173.658 156.477 172.966 154.126C171.614 147.843 171.73 146.004 165.91 139.597ZM174.558 164.225C173.125 161.07 174.865 158.382 176.839 161.596L181.752 168.929C182.444 169.829 182.512 170.313 182.027 170.244C180.049 170.258 176.259 167.258 174.558 164.225H174.558ZM105.104 20.4042C102.474 24.486 101.506 28.4295 102.266 32.2334C102.958 35.831 104.964 38.6667 108.354 40.6726C111.606 42.6797 116.656 43.3708 123.644 42.8177C132.567 42.1947 137.063 40.3267 137.134 37.2826C137.617 32.2338 135.679 26.6991 131.321 20.8193C126.617 14.524 121.568 11.6183 116.101 12.2413C111.882 12.7944 108.216 15.4925 105.104 20.4042ZM116.586 22.4797C115.094 21.2631 115.641 19.0345 117.277 18.1211L120.184 18.3287C121.36 19.0897 122.189 19.9895 122.606 21.1656C123.744 24.5159 118.74 23.9329 116.585 22.4797H116.586ZM129.729 37.0067C130.492 37.2142 130.767 37.5613 130.699 37.9072C130.562 38.5291 129.245 38.9438 126.826 39.1506L123.436 38.9438C121.43 38.4937 123.794 36.674 127.171 36.7307L129.729 37.0067H129.729Z" fill="#131313"/>
</g>
<defs>
<clipPath id="clip0_14_152">
<rect width="199" height="199" rx="17" fill="white"/>
</clipPath>
</defs>
</svg>
